<svg xmlns="http://www.w3.org/2000/svg" width="24" height="24" fill="#ffffff" viewBox="0 0 24 24">
  <path d="M22.225 0H1.771C.792 0 0 .774 0 1.729v20.542C0 23.225.792 24 1.771 24h20.451C23.206 24 24 23.225 24 22.271V1.729C24 .774 23.206 0 22.225 0zM7.059 20.452H3.548V9h3.511v11.452zM5.303 7.61c-1.123 0-2.033-.91-2.033-2.033 0-1.123.91-2.033 2.033-2.033 1.123 0 2.033.91 2.033 2.033 0 1.123-.91 2.033-2.033 2.033zm15.15 12.842h-3.51v-5.604c0-1.336-.027-3.053-1.86-3.053-1.862 0-2.148 1.454-2.148 2.957v5.7h-3.511V9h3.373v1.561h.048c.469-.888 1.615-1.823 3.324-1.823 3.557 0 4.21 2.34 4.21 5.383v6.331z"/>
</svg>